# xmcd
#
# Track frame offsets:
#	150
#	26332
#	46869
#	78626
#	105171
#	137805
#	151149
#	166206
#	188408
#	207217
#	230587
#	255084
#	280252
#	309151
#	332308
#
# Disc length: 4738 seconds
#
# Revision: 0
# Processed by: cddbd v1.5.2PL0 Copyright (c) Steve Scherf et al.
# Submitted via: EasyCDDAExtractor 8.2.3.1
#
DISCID=a912800f
DTITLE=Various Artist - Black Pure Blues CD-1
DYEAR=2001
DGENRE=Blues
TTITLE0=MAGIC SLIM - Crazy Woman
TTITLE1=BILLY BRANCH - Grown Men Cry
TTITLE2=MELVIN TAYLOR - Dirty Pool
TTITLE3=BERNARD ALLISON - If You Want Me to Stay
TTITLE4=JIMMY D'LANE - Four O'Clock in the Morning
TTITLE5=TROY TURNER - Blues on My Back
TTITLE6=TAJ MAHAL - Cheatin' on You
TTITLE7=OTIS RUSH - I Got the Blues
TTITLE8=KEB' MO' - A Letter to Tracy
TTITLE9=BUDDY GUY - Midnight Train
TTITLE10=SON SILS - Give the Devil His Due
TTITLE11=LUTHER ALLISON - It's a Blues Thing
TTITLE12=BO DIDDLEY - That Mule
TTITLE13=ROBERT CRAY - I Shiver
TTITLE14=LIGHTNIN' HOPKINS - Take a Trip with Me
EXTD=
EXTT0=
EXTT1=
EXTT2=
EXTT3=
EXTT4=
EXTT5=
EXTT6=
EXTT7=
EXTT8=
EXTT9=
EXTT10=
EXTT11=
EXTT12=
EXTT13=
EXTT14=
PLAYORDER=
